# xmcd
#
# Track frame offsets:
#	150
#	18862
#	33352
#	54514
#	73375
#	100215
#	119502
#	136772
#	158387
#	173809
#	199159
#	219425
#
# Disc length: 3183 seconds
#
# Revision: 1
# Processed by: cddbd v1.4PL0 Copyright (c) Steve Scherf et al.
# Submitted via: audiograbber 1.81.03
#
DISCID=a00c6d0c
DTITLE=Anthony Gomes Band - Blues In Technicolor
DYEAR=1998
DGENRE=Blues
TTITLE0=Blues In Technicolor
TTITLE1=Gonna Have A Party
TTITLE2=Bad Luck Child
TTITLE3=Outta The Cathouse
TTITLE4=Misery For Company
TTITLE5=Love's Got The Power
TTITLE6=Hard Year For The Blues
TTITLE7=Wolf In My Henhouse
TTITLE8=Shame On You
TTITLE9=Brand New Day
TTITLE10=High Calorie Woman
TTITLE11=Monday Kinda Tuesday
EXTD=
EXTT0=
EXTT1=
EXTT2=
EXTT3=
EXTT4=
EXTT5=
EXTT6=
EXTT7=
EXTT8=
EXTT9=
EXTT10=
EXTT11=
PLAYORDER=
